<?xml version="1.0" encoding="UTF-8"?>
<svg version="1.1" xmlns="http://www.w3.org/2000/svg" width="48" height="48">
<path d="M0 0 C0 0.66 0 1.32 0 2 C0.928125 2.185625 0.928125 2.185625 1.875 2.375 C4 3 4 3 6 5 C6.4140625 7.8203125 6.4140625 7.8203125 6.625 11.125 C6.69976562 12.22070312 6.77453125 13.31640625 6.8515625 14.4453125 C6.92503906 15.70988281 6.92503906 15.70988281 7 17 C6.34 17 5.68 17 5 17 C4.896875 17.721875 4.79375 18.44375 4.6875 19.1875 C3.94013068 22.24491993 2.71954811 24.38329635 1 27 C1.721875 27.0825 2.44375 27.165 3.1875 27.25 C6.58712309 28.15656616 8.42430315 29.63894455 11 32 C12 34 12 34 12 40 C1.44 40 -9.12 40 -20 40 C-20 34 -20 34 -18.25 31.25 C-16.1636616 29.1636616 -14.75427871 27.9773247 -12 27 C-11.01 27 -10.02 27 -9 27 C-9.66 25.906875 -10.32 24.81375 -11 23.6875 C-12.58464929 21.06292462 -13 20.1743622 -13 17 C-13.66 17 -14.32 17 -15 17 C-14.7904119 6.2919534 -14.7904119 6.2919534 -12 2.3125 C-7.95233322 -0.80757648 -4.9322138 -0.58026045 0 0 Z " fill="#FCB148" transform="translate(28,4)"/>
<path d="M0 0 C0.69480469 -0.02449219 1.38960937 -0.04898437 2.10546875 -0.07421875 C7.27820068 -0.10344322 10.16789403 1.10300491 14.125 4.375 C16.125 7.375 16.125 7.375 16.125 13.375 C5.565 13.375 -4.995 13.375 -15.875 13.375 C-15.875 7.375 -15.875 7.375 -14.125 4.625 C-9.80324373 0.30324373 -5.95813129 0.01093235 0 0 Z " fill="#CED6DA" transform="translate(23.875,30.625)"/>
<path d="M0 0 C2.70567626 1.82339052 4.53728718 3.07457436 6 6 C6 7.98 6 9.96 6 12 C1.38 12 -3.24 12 -8 12 C-8.33 8.04 -8.66 4.08 -9 0 C-5.81229009 -1.59385496 -3.40972958 -0.75129635 0 0 Z " fill="#CFD7DB" transform="translate(34,32)"/>
<path d="M0 0 C0.59167969 0.06960938 1.18335938 0.13921875 1.79296875 0.2109375 C1.79296875 0.8709375 1.79296875 1.5309375 1.79296875 2.2109375 C2.41171875 2.3346875 3.03046875 2.4584375 3.66796875 2.5859375 C5.79296875 3.2109375 5.79296875 3.2109375 7.79296875 5.2109375 C7.98828125 7.375 7.98828125 7.375 7.91796875 9.8359375 C7.89992188 10.65320312 7.881875 11.47046875 7.86328125 12.3125 C7.84007813 12.93898438 7.816875 13.56546875 7.79296875 14.2109375 C7.13296875 14.2109375 6.47296875 14.2109375 5.79296875 14.2109375 C5.54546875 13.2415625 5.29796875 12.2721875 5.04296875 11.2734375 C4.17729431 8.12850807 4.17729431 8.12850807 2.0078125 7.4453125 C-0.62832521 7.16635613 -2.37877042 7.57925587 -4.89453125 8.3984375 C-5.68214844 8.63949219 -6.46976563 8.88054688 -7.28125 9.12890625 C-9.40785053 10.04861334 -9.40785053 10.04861334 -9.9765625 12.32421875 C-10.05261719 12.94683594 -10.12867188 13.56945313 -10.20703125 14.2109375 C-10.86703125 14.2109375 -11.52703125 14.2109375 -12.20703125 14.2109375 C-12.87667411 6.44308036 -12.87667411 6.44308036 -10.26953125 2.7109375 C-6.54068602 -0.33301779 -4.64296516 -0.31811507 0 0 Z " fill="#FF5722" transform="translate(26.20703125,3.7890625)"/>
<path d="M0 0 C0.99 0.33 1.98 0.66 3 1 C3 4.63 3 8.26 3 12 C1.68 12 0.36 12 -1 12 C-0.67 8.04 -0.34 4.08 0 0 Z " fill="#5566BB" transform="translate(23,32)"/>
<path d="M0 0 C3.3 0 6.6 0 10 0 C10 0.99 10 1.98 10 3 C3.375 4.125 3.375 4.125 0 3 C0 2.01 0 1.02 0 0 Z " fill="#FC9B0C" transform="translate(19,28)"/>
</svg>
